<svg width="50" height="36" viewBox="0 0 50 36" fill="none" xmlns="http://www.w3.org/2000/svg">
<path d="M3 0.5H32C41.665 0.5 49.5 8.33502 49.5 18C49.5 27.665 41.665 35.5 32 35.5H3C2.17157 35.5 1.5 34.8284 1.5 34V2C1.5 1.17157 2.17157 0.5 3 0.5Z" fill="#ABDC85" stroke="#3E671E"/>
<path d="M13.4972 22H11.5199L14.5327 13.2727H16.9105L19.919 22H17.9418L15.7557 15.267H15.6875L13.4972 22ZM13.3736 18.5696H18.044V20.0099H13.3736V18.5696ZM28.2692 13.2727V22H26.6754L22.8786 16.5071H22.8146V22H20.9695V13.2727H22.5888L26.3558 18.7614H26.4325V13.2727H28.2692ZM32.8874 22H29.7937V13.2727H32.913C33.7908 13.2727 34.5465 13.4474 35.18 13.7969C35.8136 14.1435 36.3008 14.642 36.6417 15.2926C36.9854 15.9432 37.1573 16.7216 37.1573 17.6278C37.1573 18.5369 36.9854 19.3182 36.6417 19.9716C36.3008 20.625 35.8107 21.1264 35.1715 21.4759C34.5352 21.8253 33.7738 22 32.8874 22ZM31.6388 20.419H32.8107C33.3562 20.419 33.815 20.3224 34.1871 20.1293C34.5621 19.9332 34.8434 19.6307 35.0309 19.2216C35.2212 18.8097 35.3164 18.2784 35.3164 17.6278C35.3164 16.983 35.2212 16.456 35.0309 16.0469C34.8434 15.6378 34.5636 15.3366 34.1914 15.1435C33.8192 14.9503 33.3604 14.8537 32.815 14.8537H31.6388V20.419Z" fill="#3E671E"/>
</svg>
