<svg width="99" height="36" viewBox="0 0 99 36" fill="none" xmlns="http://www.w3.org/2000/svg">
<g clip-path="url(#clip0_1277_70)">
<path d="M2 0.5H31C40.665 0.5 48.5 8.33502 48.5 18C48.5 27.665 40.665 35.5 31 35.5H2C1.17157 35.5 0.5 34.8284 0.5 34V2C0.5 1.17157 1.17157 0.5 2 0.5Z" fill="#A7DE7C" stroke="#3E671E"/>
<g filter="url(#filter0_i_1277_70)">
<path d="M11.7772 22H9.79989L12.8127 13.2727H15.1905L18.199 22H16.2218L14.0357 15.267H13.9675L11.7772 22ZM11.6536 18.5696H16.324V20.0099H11.6536V18.5696ZM27.2692 13.2727V22H25.6754L21.8786 16.5071H21.8146V22H19.9695V13.2727H21.5888L25.3558 18.7614H25.4325V13.2727H27.2692ZM32.6074 22H29.5137V13.2727H32.633C33.5108 13.2727 34.2665 13.4474 34.9 13.7969C35.5336 14.1435 36.0208 14.642 36.3617 15.2926C36.7054 15.9432 36.8773 16.7216 36.8773 17.6278C36.8773 18.5369 36.7054 19.3182 36.3617 19.9716C36.0208 20.625 35.5307 21.1264 34.8915 21.4759C34.2552 21.8253 33.4938 22 32.6074 22ZM31.3589 20.419H32.5307C33.0762 20.419 33.535 20.3224 33.9071 20.1293C34.2821 19.9332 34.5634 19.6307 34.7509 19.2216C34.9412 18.8097 35.0364 18.2784 35.0364 17.6278C35.0364 16.983 34.9412 16.456 34.7509 16.0469C34.5634 15.6378 34.2836 15.3366 33.9114 15.1435C33.5392 14.9503 33.0804 14.8537 32.535 14.8537H31.3589V20.419Z" fill="#3E671E"/>
</g>
<path d="M50.8253 35.5C50.9409 35.2707 51.0785 34.9918 51.2327 34.6681C51.7066 33.6729 52.3377 32.2527 52.9689 30.5487C54.2286 27.1473 55.5 22.584 55.5 18C55.5 13.416 54.2286 8.85267 52.9689 5.45134C52.3377 3.74726 51.7066 2.32707 51.2327 1.33191C51.0785 1.00818 50.9409 0.729258 50.8253 0.5H71.7358C81.6642 0.5 90.8771 5.66692 96.0543 14.1387L98.414 18L96.0543 21.8613C90.8771 30.3331 81.6642 35.5 71.7358 35.5H50.8253Z" fill="#93D6FF" stroke="#10479E"/>
<g filter="url(#filter1_i_1277_70)">
<path d="M72.9076 17.6364C72.9076 18.5881 72.7272 19.3977 72.3664 20.0653C72.0084 20.733 71.5198 21.2429 70.9004 21.5952C70.284 21.9446 69.5908 22.1193 68.8209 22.1193C68.0453 22.1193 67.3493 21.9432 66.7328 21.5909C66.1164 21.2386 65.6291 20.7287 65.2712 20.0611C64.9132 19.3935 64.7343 18.5852 64.7343 17.6364C64.7343 16.6847 64.9132 15.875 65.2712 15.2074C65.6291 14.5398 66.1164 14.0312 66.7328 13.6818C67.3493 13.3295 68.0453 13.1534 68.8209 13.1534C69.5908 13.1534 70.284 13.3295 70.9004 13.6818C71.5198 14.0312 72.0084 14.5398 72.3664 15.2074C72.7272 15.875 72.9076 16.6847 72.9076 17.6364ZM71.0368 17.6364C71.0368 17.0199 70.9445 16.5 70.7598 16.0767C70.578 15.6534 70.3209 15.3324 69.9885 15.1136C69.6561 14.8949 69.2669 14.7855 68.8209 14.7855C68.3749 14.7855 67.9857 14.8949 67.6533 15.1136C67.3209 15.3324 67.0624 15.6534 66.8777 16.0767C66.6959 16.5 66.605 17.0199 66.605 17.6364C66.605 18.2528 66.6959 18.7727 66.8777 19.196C67.0624 19.6193 67.3209 19.9403 67.6533 20.1591C67.9857 20.3778 68.3749 20.4872 68.8209 20.4872C69.2669 20.4872 69.6561 20.3778 69.9885 20.1591C70.3209 19.9403 70.578 19.6193 70.7598 19.196C70.9445 18.7727 71.0368 18.2528 71.0368 17.6364ZM74.7544 22V13.2727H78.1976C78.8567 13.2727 79.4192 13.3906 79.8851 13.6264C80.3538 13.8594 80.7103 14.1903 80.9547 14.6193C81.2018 15.0455 81.3254 15.5469 81.3254 16.1236C81.3254 16.7031 81.2004 17.2017 80.9504 17.6193C80.7004 18.0341 80.3382 18.3523 79.8638 18.5739C79.3922 18.7955 78.8211 18.9062 78.1507 18.9062H75.8453V17.4233H77.8524C78.2047 17.4233 78.4973 17.375 78.7302 17.2784C78.9632 17.1818 79.1365 17.0369 79.2501 16.8438C79.3666 16.6506 79.4248 16.4105 79.4248 16.1236C79.4248 15.8338 79.3666 15.5895 79.2501 15.3906C79.1365 15.1918 78.9618 15.0412 78.726 14.9389C78.493 14.8338 78.199 14.7812 77.8439 14.7812H76.5996V22H74.7544ZM79.4675 18.0284L81.6365 22H79.5996L77.4774 18.0284H79.4675Z" fill="#165BC9"/>
</g>
</g>
<defs>
<filter id="filter0_i_1277_70" x="9.7998" y="13.2727" width="27.5776" height="9.22729" filterUnits="userSpaceOnUse" color-interpolation-filters="sRGB">
<feFlood flood-opacity="0" result="BackgroundImageFix"/>
<feBlend mode="normal" in="SourceGraphic" in2="BackgroundImageFix" result="shape"/>
<feColorMatrix in="SourceAlpha" type="matrix" values="0 0 0 0 0 0 0 0 0 0 0 0 0 0 0 0 0 0 127 0" result="hardAlpha"/>
<feOffset dx="0.5" dy="0.5"/>
<feGaussianBlur stdDeviation="0.5"/>
<feComposite in2="hardAlpha" operator="arithmetic" k2="-1" k3="1"/>
<feColorMatrix type="matrix" values="0 0 0 0 0 0 0 0 0 0 0 0 0 0 0 0 0 0 0.59 0"/>
<feBlend mode="normal" in2="shape" result="effect1_innerShadow_1277_70"/>
</filter>
<filter id="filter1_i_1277_70" x="64.7344" y="13.1534" width="17.4023" height="9.46594" filterUnits="userSpaceOnUse" color-interpolation-filters="sRGB">
<feFlood flood-opacity="0" result="BackgroundImageFix"/>
<feBlend mode="normal" in="SourceGraphic" in2="BackgroundImageFix" result="shape"/>
<feColorMatrix in="SourceAlpha" type="matrix" values="0 0 0 0 0 0 0 0 0 0 0 0 0 0 0 0 0 0 127 0" result="hardAlpha"/>
<feOffset dx="0.5" dy="0.5"/>
<feGaussianBlur stdDeviation="0.5"/>
<feComposite in2="hardAlpha" operator="arithmetic" k2="-1" k3="1"/>
<feColorMatrix type="matrix" values="0 0 0 0 0 0 0 0 0 0 0 0 0 0 0 0 0 0 1 0"/>
<feBlend mode="normal" in2="shape" result="effect1_innerShadow_1277_70"/>
</filter>
<clipPath id="clip0_1277_70">
<rect width="99" height="36" fill="white"/>
</clipPath>
</defs>
</svg>
